# xmcd
#
# Track frame offsets:
#       150
#       16724
#       42933
#       61176
#
# Disc length: 1032 seconds
#
# Revision: 0
# Processed by: cddbd v1.5.2PL0 Copyright (c) Steve Scherf et al.
# Submitted via: WaveLab 4.01
#
DISCID=24040604
DTITLE=Emilie Chytraeus - Emilie Chytraeus
DYEAR=2009
DGENRE=Pop
TTITLE0=This Love Won't Go Away
TTITLE1=Your Sin of Indie
TTITLE2=For You
TTITLE3=The Blue Who
EXTD=
EXTT0=
EXTT1=
EXTT2=
EXTT3=
PLAYORDER=
